<svg width="33" height="34" viewBox="0 0 33 34" fill="none" xmlns="http://www.w3.org/2000/svg">
<path d="M25.75 25.75C23.817 25.75 22.25 27.317 22.25 29.25C22.25 31.183 23.817 32.75 25.75 32.75C27.683 32.75 29.25 31.183 29.25 29.25C29.25 27.317 27.683 25.75 25.75 25.75ZM25.75 25.75H12.2644C11.4572 25.75 11.0534 25.75 10.7212 25.6064C10.4282 25.4798 10.1738 25.2754 9.98861 25.0154C9.7786 24.7206 9.69566 24.326 9.52653 23.5367L5.2251 3.46335C5.05597 2.67407 4.97027 2.27945 4.76025 1.98465C4.57503 1.72465 4.32169 1.52022 4.02864 1.39358C3.69639 1.25 3.29363 1.25 2.48644 1.25H1.25M6.5 6.5H29.0281C30.2912 6.5 30.9225 6.5 31.3464 6.76313C31.7177 6.99361 31.989 7.35466 32.1076 7.77533C32.2429 8.25558 32.0693 8.86244 31.7192 10.076L29.2961 18.4761C29.0868 19.2017 28.9821 19.5646 28.7698 19.8338C28.5823 20.0715 28.3352 20.2563 28.0549 20.3705C27.7373 20.5 27.3598 20.5 26.6045 20.5H9.52832M10 32.75C8.067 32.75 6.5 31.183 6.5 29.25C6.5 27.317 8.067 25.75 10 25.75C11.933 25.75 13.5 27.317 13.5 29.25C13.5 31.183 11.933 32.75 10 32.75Z" stroke="white" stroke-width="1.5" stroke-linecap="round" stroke-linejoin="round"/>
</svg>
