<svg width="27" height="18" viewBox="0 0 27 18" fill="none" xmlns="http://www.w3.org/2000/svg">
<path d="M1.48207 0H25.513C26.3299 0 26.9951 0.6375 26.9951 1.42031V16.575C26.9951 17.3578 26.3299 17.9953 25.513 17.9953H1.48207C0.665217 18 0 17.3625 0 16.5797V1.42031C0 0.6375 0.665217 0 1.48207 0Z" fill="#B22234"/>
<path d="M0.00978261 1.27969H26.9951C27 1.32656 27.0049 1.37344 27.0049 1.425V2.80312H0V1.42031C0 1.37344 0.0048913 1.32656 0.00978261 1.27969ZM27 4.06406V5.58281H0V4.06406H27ZM27 6.84844V8.36719H0V6.84844H27ZM27 9.63281V11.1516H0V9.63281H27ZM27 12.4172V13.9359H0V12.4172H27ZM27 15.2016V16.575C27 16.6219 26.9951 16.6734 26.9902 16.7203H0.00978261C0.0048913 16.6781 0 16.6266 0 16.5797V15.2062H27V15.2016Z" fill="white"/>
<path d="M10.1739 0V9.69375H0V1.42031C0 0.6375 0.665217 0 1.48207 0H10.1739Z" fill="#3C3B6E"/>
<path d="M0.601546 1.34063L0.939045 2.34844L0.0488281 1.725H1.15426L0.259154 2.34844L0.601546 1.34063Z" fill="white"/>
<path d="M0.601546 3.29063L0.939045 4.29844L0.0488281 3.675H1.15426L0.259154 4.29844L0.601546 3.29063Z" fill="white"/>
<path d="M0.601546 5.24062L0.939045 6.24844L0.0488281 5.625H1.15426L0.259154 6.24844L0.601546 5.24062Z" fill="white"/>
<path d="M0.601546 7.19062L0.939045 8.19844L0.0488281 7.575H1.15426L0.259154 8.19844L0.601546 7.19062Z" fill="white"/>
<path d="M1.7949 0.365623L2.1373 1.37344L1.24219 0.749998H2.35251L1.45251 1.37344L1.7949 0.365623Z" fill="white"/>
<path d="M1.7949 2.31562L2.1373 3.32344L1.24219 2.7H2.35251L1.45251 3.32344L1.7949 2.31562Z" fill="white"/>
<path d="M1.7949 4.26562L2.1373 5.27344L1.24219 4.65H2.35251L1.45251 5.27344L1.7949 4.26562Z" fill="white"/>
<path d="M1.7949 6.21563L2.1373 7.22344L1.24219 6.6H2.35251L1.45251 7.22344L1.7949 6.21563Z" fill="white"/>
<path d="M1.7949 8.16563L2.1373 9.17344L1.24219 8.55H2.35251L1.45251 9.17344L1.7949 8.16563Z" fill="white"/>
<path d="M2.99315 1.34063L3.33554 2.34844L2.44043 1.725H3.54586L2.65076 2.34844L2.99315 1.34063Z" fill="white"/>
<path d="M2.99315 3.29063L3.33554 4.29844L2.44043 3.675H3.54586L2.65076 4.29844L2.99315 3.29063Z" fill="white"/>
<path d="M2.99315 5.24062L3.33554 6.24844L2.44043 5.625H3.54586L2.65076 6.24844L2.99315 5.24062Z" fill="white"/>
<path d="M2.99315 7.19062L3.33554 8.19844L2.44043 7.575H3.54586L2.65076 8.19844L2.99315 7.19062Z" fill="white"/>
<path d="M4.19139 0.365623L4.52889 1.37344L3.63867 0.749998H4.74411L3.849 1.37344L4.19139 0.365623Z" fill="white"/>
<path d="M4.19139 2.31562L4.52889 3.32344L3.63867 2.7H4.74411L3.849 3.32344L4.19139 2.31562Z" fill="white"/>
<path d="M4.19139 4.26562L4.52889 5.27344L3.63867 4.65H4.74411L3.849 5.27344L4.19139 4.26562Z" fill="white"/>
<path d="M4.19139 6.21563L4.52889 7.22344L3.63867 6.6H4.74411L3.849 7.22344L4.19139 6.21563Z" fill="white"/>
<path d="M4.19139 8.16563L4.52889 9.17344L3.63867 8.55H4.74411L3.849 9.17344L4.19139 8.16563Z" fill="white"/>
<path d="M5.38573 1.34063L5.72812 2.34844L4.83301 1.725H5.93844L5.04333 2.34844L5.38573 1.34063Z" fill="white"/>
<path d="M5.38573 3.29063L5.72812 4.29844L4.83301 3.675H5.93844L5.04333 4.29844L5.38573 3.29063Z" fill="white"/>
<path d="M5.38573 5.24062L5.72812 6.24844L4.83301 5.625H5.93844L5.04333 6.24844L5.38573 5.24062Z" fill="white"/>
<path d="M5.38573 7.19062L5.72812 8.19844L4.83301 7.575H5.93844L5.04333 8.19844L5.38573 7.19062Z" fill="white"/>
<path d="M6.58397 0.365623L6.92636 1.37344L6.03125 0.749998H7.13668L6.24158 1.37344L6.58397 0.365623Z" fill="white"/>
<path d="M6.58397 2.31562L6.92636 3.32344L6.03125 2.7H7.13668L6.24158 3.32344L6.58397 2.31562Z" fill="white"/>
<path d="M6.58397 4.26562L6.92636 5.27344L6.03125 4.65H7.13668L6.24158 5.27344L6.58397 4.26562Z" fill="white"/>
<path d="M6.58397 6.21563L6.92636 7.22344L6.03125 6.6H7.13668L6.24158 7.22344L6.58397 6.21563Z" fill="white"/>
<path d="M6.58397 8.16563L6.92636 9.17344L6.03125 8.55H7.13668L6.24158 9.17344L6.58397 8.16563Z" fill="white"/>
<path d="M7.77733 1.34063L8.11972 2.34844L7.22461 1.725H8.33004L7.43983 2.34844L7.77733 1.34063Z" fill="white"/>
<path d="M7.77733 3.29063L8.11972 4.29844L7.22461 3.675H8.33004L7.43983 4.29844L7.77733 3.29063Z" fill="white"/>
<path d="M7.77733 5.24062L8.11972 6.24844L7.22461 5.625H8.33004L7.43983 6.24844L7.77733 5.24062Z" fill="white"/>
<path d="M7.77733 7.19062L8.11972 8.19844L7.22461 7.575H8.33004L7.43983 8.19844L7.77733 7.19062Z" fill="white"/>
<path d="M8.97557 0.365623L9.31796 1.37344L8.42285 0.749998H9.52829L8.63318 1.37344L8.97557 0.365623Z" fill="white"/>
<path d="M8.97557 2.31562L9.31796 3.32344L8.42285 2.7H9.52829L8.63318 3.32344L8.97557 2.31562Z" fill="white"/>
<path d="M8.97557 4.26562L9.31796 5.27344L8.42285 4.65H9.52829L8.63318 5.27344L8.97557 4.26562Z" fill="white"/>
<path d="M8.97557 6.21563L9.31796 7.22344L8.42285 6.6H9.52829L8.63318 7.22344L8.97557 6.21563Z" fill="white"/>
<path d="M8.97557 8.16563L9.31796 9.17344L8.42285 8.55H9.52829L8.63318 9.17344L8.97557 8.16563Z" fill="white"/>
</svg>
