<svg width="76" height="20" viewBox="0 0 76 20" fill="none" xmlns="http://www.w3.org/2000/svg">
<path d="M19.5176 6.7378C18.9067 5.45601 17.7483 4.62802 16.0027 4.62802C15.4669 4.63735 14.9405 4.76966 14.4639 5.01464C13.9873 5.25966 13.5734 5.61086 13.254 6.04116L13.1903 6.11878V1.09513C13.1903 1.06609 13.1788 1.03825 13.1583 1.01772C13.1378 0.997192 13.1099 0.985657 13.0809 0.985657H10.6128C10.5842 0.986178 10.5568 0.997941 10.5367 1.01841C10.5166 1.03889 10.5054 1.06644 10.5054 1.09513V15.5053C10.5054 15.5338 10.5167 15.5612 10.5369 15.5813C10.557 15.6015 10.5843 15.6128 10.6128 15.6128H13.256C13.2847 15.6128 13.3123 15.6016 13.3328 15.5814C13.3532 15.5613 13.365 15.534 13.3655 15.5053V9.36109C13.3655 8.16688 14.1616 7.32097 15.4355 7.32097C16.8287 7.32097 17.181 8.46742 17.181 9.63574V15.5053C17.181 15.5338 17.1923 15.5612 17.2125 15.5813C17.2326 15.6015 17.26 15.6128 17.2885 15.6128H19.9257C19.9544 15.6128 19.982 15.6016 20.0024 15.5814C20.0229 15.5613 20.0347 15.534 20.0352 15.5053V9.28546C20.0352 9.07248 20.0352 8.86348 20.0074 8.66049C19.962 7.99521 19.7961 7.3437 19.5176 6.7378Z" fill="white"/>
<path d="M6.31945 8.87351C6.31945 8.87351 4.97397 8.55703 4.47838 8.42965C3.98276 8.30227 3.11696 8.03158 3.11696 7.37675C3.11696 6.72192 3.81557 6.51292 4.52415 6.51292C5.23272 6.51292 6.02091 6.6841 6.08261 7.4703C6.0851 7.49864 6.09814 7.52497 6.11914 7.54417C6.14016 7.56333 6.1676 7.57389 6.19605 7.5738L8.80142 7.56385C8.81676 7.56388 8.83193 7.56076 8.846 7.55467C8.86006 7.54858 8.87272 7.53965 8.88318 7.52843C8.89365 7.51724 8.90169 7.50399 8.90679 7.48953C8.91189 7.47506 8.91399 7.45971 8.91288 7.44441C8.75167 4.92861 6.54436 4.02897 4.50822 4.02897C2.09391 4.02897 0.328477 5.62126 0.328477 7.37675C0.328477 8.65854 0.690723 9.86073 3.53891 10.6967C4.0385 10.842 4.71722 11.031 5.31035 11.1963C6.02289 11.3953 6.40702 11.6958 6.40702 12.1695C6.40702 12.7189 5.61089 13.101 4.82868 13.101C3.69617 13.101 2.89206 12.6811 2.82637 11.9267C2.82295 11.8991 2.80952 11.8737 2.78859 11.8553C2.76768 11.837 2.74075 11.827 2.71292 11.8272L0.113519 11.8391C0.0982791 11.8391 0.0831961 11.8422 0.0691656 11.8481C0.0551353 11.8541 0.0424472 11.8628 0.0318585 11.8738C0.02127 11.8847 0.0129965 11.8977 0.00753493 11.9119C0.00207341 11.9262 -0.000464838 11.9413 6.98832e-05 11.9566C0.119491 14.3311 2.41238 15.6108 4.55004 15.6108C7.73461 15.6108 9.17362 13.8196 9.17362 12.1417C9.17761 11.3535 8.99648 9.55818 6.31945 8.87351Z" fill="white"/>
<path d="M39.837 4.62403C38.5136 4.62403 37.4048 5.35647 36.6903 6.24023V4.72753C36.6903 4.69937 36.6791 4.67231 36.6594 4.65223C36.64 4.63213 36.613 4.62057 36.5847 4.62007H34.1128C34.0844 4.62007 34.0569 4.63137 34.0368 4.65152C34.0167 4.67169 34.0052 4.69905 34.0052 4.72753V18.8591C34.0059 18.8872 34.0175 18.9142 34.0377 18.9337C34.0578 18.9535 34.0848 18.9646 34.1128 18.9646H36.758C36.7859 18.9646 36.8127 18.9535 36.8325 18.9337C36.8523 18.914 36.8634 18.887 36.8634 18.8591V14.2136H36.9033C37.3231 14.8545 38.4716 15.6228 39.9725 15.6228C42.7945 15.6228 45.1473 13.2821 45.1473 10.1194C45.1494 7.08413 42.8087 4.62403 39.837 4.62403ZM39.5922 12.9298C39.0353 12.9437 38.4863 12.7912 38.0163 12.4918C37.5463 12.1924 37.1759 11.7598 36.9527 11.2491C36.7296 10.7384 36.6636 10.1728 36.7635 9.62443C36.863 9.07608 37.124 8.5699 37.5126 8.17048C37.9014 7.77101 38.4003 7.49645 38.9458 7.38181C39.4911 7.26717 40.0583 7.31763 40.5748 7.52677C41.0916 7.73589 41.534 8.09423 41.8462 8.55601C42.1582 9.01781 42.3255 9.56208 42.3271 10.1194C42.3327 10.4837 42.2664 10.8456 42.1321 11.1843C41.9978 11.5229 41.7976 11.8317 41.5435 12.0928C41.2896 12.3539 40.9864 12.5623 40.6513 12.7059C40.3165 12.8496 39.9566 12.9256 39.5922 12.9298Z" fill="white"/>
<path d="M26.1776 4.00319C23.7115 4.00319 22.4815 4.84113 21.4941 5.5119L21.4643 5.53179C21.4134 5.56662 21.3776 5.61943 21.364 5.67957C21.3503 5.73973 21.3598 5.8028 21.3907 5.85622L22.366 7.53606C22.3842 7.5675 22.4093 7.59452 22.4391 7.61515C22.4691 7.6358 22.5032 7.64958 22.5392 7.65549C22.5743 7.66183 22.6103 7.66029 22.6447 7.65099C22.6791 7.64169 22.7111 7.62491 22.7382 7.60174L22.8157 7.53807C23.3232 7.11213 24.1373 6.54287 26.1078 6.38762C27.2045 6.30007 28.152 6.58667 28.8506 7.23951C29.6188 7.94809 30.0787 9.09254 30.0787 10.3007C30.0787 12.5239 28.7689 13.9211 26.6652 13.949C24.9315 13.9391 23.7671 13.0354 23.7671 11.6999C23.7671 10.9913 24.0876 10.5296 24.7126 10.0678C24.7603 10.0337 24.794 9.98344 24.8076 9.92636C24.8212 9.86929 24.8136 9.80924 24.7862 9.75732L23.9106 8.10132C23.8943 8.07169 23.8724 8.04554 23.8461 8.02436C23.8198 8.00319 23.7897 7.98741 23.7572 7.97793C23.724 7.96807 23.6893 7.96528 23.655 7.96971C23.6206 7.97417 23.5876 7.98579 23.5581 8.00382C22.575 8.58698 21.3688 9.65382 21.4344 11.7039C21.514 14.3132 23.6836 16.3056 26.5039 16.3872H26.8383C30.1899 16.2777 32.6103 13.7898 32.6103 10.4161C32.6103 7.31911 30.3531 4.00319 26.1776 4.00319Z" fill="white"/>
<path d="M55.5706 5.59547H53.8905C53.8514 5.59598 53.8136 5.61188 53.7857 5.63975C53.7577 5.66763 53.7418 5.70531 53.7416 5.74475V9.26965C53.7418 9.30892 53.7578 9.34635 53.7859 9.37391C53.8138 9.40148 53.8514 9.41696 53.8905 9.41696H55.5706C56.5936 9.41696 57.348 8.61085 57.348 7.5062C57.348 6.40156 56.5936 5.59547 55.5706 5.59547Z" fill="white"/>
<path d="M60.7321 11.8312C60.7321 12.3427 61.1639 12.6273 61.9162 12.6273C62.9392 12.6273 63.5442 12.074 63.5442 11.0927V10.8101L62.0119 10.8897C61.2036 10.9295 60.7321 11.2659 60.7321 11.8312Z" fill="white"/>
<path d="M73.1715 1.01759H50.6008C50.2307 1.01759 49.8638 1.09055 49.522 1.23231C49.1798 1.37407 48.869 1.58185 48.6075 1.84377C48.3456 2.10569 48.1381 2.41662 47.9965 2.75879C47.8548 3.10096 47.7823 3.46765 47.7827 3.83794V16.1941C47.7827 16.9417 48.0795 17.6588 48.608 18.1876C49.1366 18.7165 49.8534 19.0139 50.6008 19.0144H73.1715C73.5422 19.0154 73.9096 18.9434 74.2525 18.8024C74.5952 18.6614 74.9069 18.4541 75.1697 18.1926C75.4321 17.931 75.6409 17.6202 75.7835 17.278C75.9259 16.9357 75.9993 16.5688 76 16.1981V3.84191C76.0005 3.47046 75.928 3.10251 75.7861 2.75923C75.6442 2.41596 75.4358 2.10411 75.173 1.84164C74.9103 1.57917 74.5981 1.37125 74.2547 1.22983C73.9112 1.08841 73.5431 1.01628 73.1715 1.01759ZM55.6563 10.8042H53.8809C53.8414 10.8042 53.8036 10.8199 53.7754 10.8479C53.7475 10.8759 53.7316 10.9139 53.7316 10.9535V13.4812C53.7316 13.5208 53.7159 13.5588 53.6881 13.5868C53.66 13.6148 53.6222 13.6305 53.5825 13.6305H52.3324C52.2932 13.63 52.2553 13.6141 52.2274 13.5862C52.1995 13.5583 52.184 13.5207 52.1832 13.4812V4.36337C52.1832 4.32381 52.199 4.28583 52.2272 4.25782C52.2551 4.22983 52.2928 4.21411 52.3324 4.21411H55.6563C57.5393 4.21411 58.8867 5.58547 58.8867 7.51014C58.8867 9.43482 57.5492 10.8082 55.6665 10.8082L55.6563 10.8042ZM65.0111 13.4792C65.0114 13.499 65.0079 13.5186 65.0003 13.537C64.9929 13.5553 64.9819 13.572 64.9682 13.5861C64.9541 13.6001 64.9376 13.6113 64.9193 13.619C64.9013 13.6266 64.8815 13.6305 64.8618 13.6305H63.6815C63.6617 13.6305 63.6421 13.6266 63.624 13.619C63.6056 13.6113 63.589 13.6001 63.5753 13.5861C63.5615 13.572 63.5504 13.5553 63.5431 13.537C63.5357 13.5186 63.532 13.499 63.5324 13.4792V13.2066C63.5341 13.1826 63.5285 13.1587 63.5156 13.1384C63.5031 13.118 63.4842 13.1023 63.4616 13.0935C63.4394 13.0848 63.4148 13.0836 63.3917 13.0899C63.3684 13.0963 63.348 13.11 63.3333 13.1289C62.9809 13.5131 62.4077 13.7917 61.4941 13.7917C60.1488 13.7917 59.2588 13.0911 59.2588 11.881C59.246 11.5859 59.3068 11.2923 59.4362 11.0267C59.5654 10.7612 59.7592 10.5321 59.9995 10.3603C60.485 9.9961 61.2373 9.80703 62.3539 9.76322L63.5382 9.72343V9.37708C63.5382 8.67846 63.0684 8.38192 62.314 8.38192C61.5597 8.38192 61.084 8.64862 60.9728 9.08452C60.9638 9.11529 60.9449 9.14223 60.9188 9.16098C60.893 9.17976 60.8614 9.18926 60.8293 9.188H59.661C59.6395 9.18855 59.6182 9.18435 59.5984 9.17577C59.579 9.16716 59.5611 9.15435 59.5469 9.13822C59.5327 9.12207 59.5221 9.10307 59.5161 9.08242C59.51 9.06179 59.5084 9.0401 59.5117 9.01883C59.687 7.98384 60.5427 7.19764 62.368 7.19764C64.3066 7.19764 65.0051 8.09929 65.0051 9.82093L65.0111 13.4792ZM72.3636 7.56386L69.7364 14.5719C69.1392 16.2 68.0943 16.618 66.9496 16.618C66.7342 16.6233 66.5189 16.5971 66.3108 16.5404C66.2783 16.5317 66.2499 16.5125 66.2291 16.4859C66.2088 16.4593 66.1977 16.4267 66.1973 16.3931V15.3283C66.1973 15.306 66.2021 15.284 66.2114 15.2638C66.221 15.2436 66.2346 15.2257 66.2517 15.2115C66.269 15.1972 66.2889 15.1869 66.3104 15.1813C66.332 15.1757 66.3546 15.1749 66.3764 15.179C66.557 15.2132 66.7402 15.2305 66.9239 15.2308C67.2403 15.2466 67.553 15.1558 67.8119 14.9728C68.0704 14.7899 68.2603 14.5253 68.3509 14.2216L68.4287 13.9768C68.4407 13.9441 68.4407 13.9081 68.4287 13.8753L65.9725 7.56588C65.9649 7.54332 65.9628 7.51929 65.9665 7.49578C65.97 7.47225 65.979 7.44989 65.9924 7.43052C66.0064 7.41114 66.0246 7.39528 66.0456 7.38419C66.0666 7.37313 66.09 7.36716 66.1137 7.36683H67.3081C67.3386 7.36713 67.3682 7.37655 67.3935 7.39395C67.4187 7.41132 67.4381 7.43585 67.4492 7.46437L69.1173 11.9148C69.1284 11.9439 69.1478 11.9689 69.1734 11.9866C69.1992 12.0043 69.2295 12.0137 69.2606 12.0137C69.2915 12.0137 69.3222 12.0043 69.3476 11.9866C69.3732 11.9689 69.3929 11.9439 69.4037 11.9148L70.851 7.47631C70.8605 7.44605 70.8797 7.41968 70.9055 7.40106C70.9313 7.38243 70.9622 7.37253 70.9939 7.37281H72.2183C72.2418 7.37271 72.2651 7.37821 72.2864 7.38876C72.3074 7.39935 72.326 7.41474 72.3401 7.43371C72.3542 7.45268 72.3636 7.47469 72.3676 7.498C72.3718 7.52128 72.3704 7.54521 72.3636 7.56785V7.56386Z" fill="white"/>
</svg>
