<svg width="54" height="36" viewBox="0 0 54 36" fill="none" xmlns="http://www.w3.org/2000/svg">
<rect x="0.75" y="0.75" width="52.5" height="34.5" rx="3.25" fill="#006FCF"/>
<rect x="0.75" y="0.75" width="52.5" height="34.5" rx="3.25" stroke="#D6DCE5" stroke-width="0.5"/>
<path d="M13.9295 15.9596L14.9335 18.3977H12.9256L13.9295 15.9596ZM34.8552 16.0639H30.983V17.146H34.79V18.7627H30.983V19.9622H34.8552V20.927L37.5541 18.0065L34.8552 14.9557V16.0639ZM16.5501 13.013H21.7522L22.9126 15.5293L23.9817 13H37.4758L38.8839 14.5515L40.3311 13H46.5241L41.9478 18.0196L46.485 23H40.1877L38.7796 21.4485L37.3194 23H15.3116L14.6727 21.4485H13.1994L12.5606 23H7.47583L11.7522 13H16.2112L16.5501 13.013ZM27.8278 14.4211H24.9074L22.9517 19.0235L20.8396 14.4211H17.9452V20.6793L15.2594 14.4211H12.6649L9.56188 21.5919H11.5827L12.2216 20.0404H15.6245L16.2633 21.5919H19.8096V16.4681L22.0912 21.5919H23.6427L25.9113 16.4811V21.5919H27.8148L27.8278 14.4211ZM39.9791 18.0196L43.2776 14.4211H40.9048L38.8187 16.6636L36.7979 14.4211H29.1316V21.605H36.6936L38.7926 19.3364L40.8135 21.605H43.2516L39.9791 18.0196Z" fill="white"/>
</svg>
