<svg width="54" height="36" viewBox="0 0 54 36" fill="none" xmlns="http://www.w3.org/2000/svg">
<rect x="0.75" y="0.75" width="52.5" height="34.5" rx="3.25" fill="white"/>
<rect x="0.75" y="0.75" width="52.5" height="34.5" rx="3.25" stroke="#D6DCE5" stroke-width="0.5"/>
<path d="M16.965 18.1553C16.965 13.3562 20.8552 9.4662 25.6544 9.4662C30.4534 9.4662 34.3436 13.3562 34.3436 18.1553C34.3436 22.9544 30.4534 26.8445 25.6544 26.8445C20.8552 26.8445 16.965 22.9544 16.965 18.1553Z" fill="white"/>
<path d="M30.9096 17.9841C30.9056 15.7587 29.515 13.8614 27.5549 13.1098V22.8585C29.515 22.1057 30.9056 20.2102 30.9096 17.9841ZM23.816 22.8563V13.1104C21.8582 13.8649 20.4692 15.7598 20.4642 17.9841C20.4692 20.2079 21.8582 22.1034 23.816 22.8563ZM25.6865 9.74438C21.136 9.74609 17.449 13.4335 17.4484 17.9841C17.449 22.5342 21.136 26.2211 25.6865 26.2217C30.2372 26.2211 33.9253 22.5342 33.9264 17.9841C33.9253 13.4335 30.2372 9.74609 25.6865 9.74438ZM25.6662 26.9999C20.6866 27.023 16.5881 22.9893 16.5881 18.0781C16.5881 12.7113 20.6866 8.999 25.6662 9H28.0004C32.9207 8.999 37.4118 12.709 37.4118 18.0781C37.4118 22.987 32.9207 26.9999 28.0004 26.9999H25.6662Z" fill="#006699"/>
</svg>
