<svg width="22" height="18" viewBox="0 0 22 18" fill="none" xmlns="http://www.w3.org/2000/svg">
<path d="M0.964793 9.15526C0.964793 4.35624 4.85498 0.466199 9.65414 0.466199C14.4532 0.466199 18.3433 4.35624 18.3433 9.15526C18.3433 13.9544 14.4532 17.8445 9.65414 17.8445C4.85498 17.8445 0.964793 13.9544 0.964793 9.15526Z" fill="white"/>
<path d="M14.9094 8.98409C14.9054 6.75868 13.5148 4.86145 11.5547 4.10978V13.8585C13.5148 13.1057 14.9054 11.2102 14.9094 8.98409ZM7.81577 13.8563V4.11036C5.85796 4.86488 4.46894 6.75982 4.46394 8.98409C4.46894 11.2079 5.85796 13.1034 7.81577 13.8563ZM9.68629 0.744376C5.13573 0.746091 1.44871 4.43354 1.44814 8.98409C1.44871 13.5342 5.13573 17.2211 9.68629 17.2217C14.237 17.2211 17.925 13.5342 17.9262 8.98409C17.925 4.43354 14.237 0.746091 9.68629 0.744376ZM9.666 17.9999C4.68639 18.023 0.587891 13.9893 0.587891 9.0781C0.587891 3.71131 4.68639 -0.000999919 9.666 2.02155e-07H12.0001C16.9205 -0.000999919 21.4116 3.70902 21.4116 9.0781C21.4116 13.987 16.9205 17.9999 12.0001 17.9999H9.666Z" fill="#006699"/>
</svg>
