<svg width="54" height="36" viewBox="0 0 54 36" fill="none" xmlns="http://www.w3.org/2000/svg">
<rect x="0.75" y="0.75" width="52.5" height="34.5" rx="3.25" fill="white"/>
<rect x="0.75" y="0.75" width="52.5" height="34.5" rx="3.25" stroke="#D6DCE5" stroke-width="0.5"/>
<path d="M21 34.1699L53 24.1699V28.1699C53 31.4836 50.3137 34.1699 47 34.1699H21Z" fill="url(#paint0_linear_106_338)"/>
<path d="M19.573 17.9992C19.573 19.7582 20.9544 21.1218 22.7313 21.1218C23.234 21.1218 23.6638 21.0227 24.1945 20.7733V19.3996C23.7281 19.866 23.3148 20.0545 22.7855 20.0545C21.6099 20.0545 20.7756 19.2023 20.7756 17.9905C20.7756 16.842 21.637 15.9357 22.7313 15.9357C23.2882 15.9357 23.7097 16.1339 24.1945 16.6085V15.2353C23.6826 14.9757 23.2611 14.8679 22.7589 14.8679C20.9907 14.8679 19.573 16.2596 19.573 17.9992Z" fill="#251F1F"/>
<path d="M16.5775 16.5462C16.5775 16.8691 16.7834 17.0402 17.4838 17.2993C18.8116 17.7851 19.2051 18.2153 19.2051 19.1661C19.2051 20.3242 18.3539 21.1305 17.1411 21.1305C16.2531 21.1305 15.6073 20.781 15.0693 19.9917L15.8234 19.2657C16.0922 19.7853 16.5407 20.0637 17.0971 20.0637C17.6182 20.0637 18.0034 19.7046 18.0034 19.2197C18.0034 18.9684 17.8865 18.7523 17.6535 18.6005C17.536 18.5285 17.3035 18.4207 16.8467 18.2598C15.7504 17.8653 15.3744 17.4433 15.3744 16.6187C15.3744 15.6394 16.1821 14.9042 17.2407 14.9042C17.8966 14.9042 18.497 15.1285 18.9992 15.5678L18.3882 16.3673C18.0842 16.0266 17.797 15.8825 17.4471 15.8825C16.9439 15.8825 16.5775 16.1692 16.5775 16.5462Z" fill="#251F1F"/>
<path fill-rule="evenodd" clip-rule="evenodd" d="M9.71356 15.0033H8V20.987H9.70438C10.6102 20.987 11.2652 20.7733 11.8394 20.2962C12.522 19.7312 12.9256 18.8794 12.9256 17.9992C12.9256 16.2335 11.606 15.0033 9.71356 15.0033ZM11.0767 19.4987C10.7098 19.8293 10.2337 19.9738 9.47961 19.9738H9.16638V16.0174H9.47961C10.2337 16.0174 10.6909 16.1518 11.0767 16.5012C11.4808 16.8604 11.7229 17.4172 11.7229 17.9905C11.7229 18.5648 11.4808 19.1395 11.0767 19.4987Z" fill="#251F1F"/>
<path d="M14.63 15.0033H13.4626V20.987H14.63V15.0033Z" fill="#251F1F"/>
<path d="M31.8531 15.0033L33.4492 19.022L35.0656 15.0033H36.3306L33.7455 21.1407H33.1176L30.5784 15.0033H31.8531Z" fill="#251F1F"/>
<path d="M36.8584 20.987H40.1686V19.9738H38.0248V18.3589H40.0893V17.3452H38.0248V16.0174H40.1686V15.0033H36.8584V20.987Z" fill="#251F1F"/>
<path fill-rule="evenodd" clip-rule="evenodd" d="M42.672 15.0033C44.0182 15.0033 44.7906 15.6495 44.7906 16.7695C44.7906 17.686 44.3058 18.2873 43.4265 18.4662L45.3102 20.987H43.8751L42.2596 18.5831H42.1069V20.987H40.9415V15.0033H42.672ZM42.1069 17.758H42.4486C43.194 17.758 43.5889 17.4342 43.5889 16.8328C43.5889 16.2504 43.194 15.9454 42.4665 15.9454H42.1069V17.758Z" fill="#251F1F"/>
<path fill-rule="evenodd" clip-rule="evenodd" d="M45.7206 15.317C45.7206 15.2116 45.6476 15.1541 45.5205 15.1541H45.3513V15.6819H45.477V15.4775L45.6244 15.6819H45.7786L45.6051 15.4644C45.6791 15.4441 45.7206 15.39 45.7206 15.317ZM45.4983 15.389H45.477V15.2508H45.4997C45.5621 15.2508 45.5945 15.2735 45.5945 15.3189C45.5945 15.3653 45.5616 15.389 45.4983 15.389Z" fill="#251F1F"/>
<path fill-rule="evenodd" clip-rule="evenodd" d="M45.0859 15.417C45.0859 15.1613 45.2899 14.9569 45.5456 14.9569C45.795 14.9569 46 15.1652 46 15.417C46 15.6703 45.795 15.8772 45.5456 15.8772C45.2919 15.8772 45.0859 15.6722 45.0859 15.417ZM45.1773 15.4175C45.1773 15.6273 45.3421 15.795 45.5437 15.795C45.7448 15.795 45.9082 15.6254 45.9082 15.4175C45.9082 15.2116 45.7448 15.0395 45.5437 15.0395C45.3407 15.0395 45.1773 15.2077 45.1773 15.4175Z" fill="#251F1F"/>
<g filter="url(#filter0_i_106_338)">
<path d="M27.7322 21.1692C25.9834 21.1692 24.5652 19.751 24.5652 18.0022V17.9979C24.5652 17.1277 24.9175 16.336 25.4874 15.7661C25.4874 15.7617 25.4918 15.7617 25.4918 15.7574C25.4961 15.7574 25.4961 15.753 25.5005 15.753C26.0704 15.1832 26.8622 14.8308 27.7322 14.8308H27.7367C29.4855 14.8308 30.9037 16.249 30.9037 17.9979V18.0022C30.9037 18.8723 30.5512 19.6597 29.9814 20.234C29.9814 20.2383 29.9771 20.2383 29.9771 20.2427C29.9727 20.2427 29.9727 20.247 29.9684 20.247C29.3941 20.8169 28.6067 21.1692 27.7367 21.1692H27.7322Z" fill="url(#paint1_linear_106_338)"/>
</g>
<defs>
<filter id="filter0_i_106_338" x="24.5652" y="14.8308" width="7.3766" height="7.89535" filterUnits="userSpaceOnUse" color-interpolation-filters="sRGB">
<feFlood flood-opacity="0" result="BackgroundImageFix"/>
<feBlend mode="normal" in="SourceGraphic" in2="BackgroundImageFix" result="shape"/>
<feColorMatrix in="SourceAlpha" type="matrix" values="0 0 0 0 0 0 0 0 0 0 0 0 0 0 0 0 0 0 127 0" result="hardAlpha"/>
<feOffset dx="1.03798" dy="1.55697"/>
<feGaussianBlur stdDeviation="1.03798"/>
<feComposite in2="hardAlpha" operator="arithmetic" k2="-1" k3="1"/>
<feColorMatrix type="matrix" values="0 0 0 0 0 0 0 0 0 0 0 0 0 0 0 0 0 0 0.35 0"/>
<feBlend mode="normal" in2="shape" result="effect1_innerShadow_106_338"/>
</filter>
<linearGradient id="paint0_linear_106_338" x1="31.0674" y1="24.1699" x2="34.6868" y2="36.7967" gradientUnits="userSpaceOnUse">
<stop stop-color="#E05026"/>
<stop offset="1" stop-color="#F9A020"/>
</linearGradient>
<linearGradient id="paint1_linear_106_338" x1="26.0733" y1="14.8308" x2="31.2815" y2="19.2379" gradientUnits="userSpaceOnUse">
<stop stop-color="#EF3823"/>
<stop offset="0.489583" stop-color="#F04D22"/>
<stop offset="1" stop-color="#F7911D"/>
</linearGradient>
</defs>
</svg>
