<svg width="30" height="14" viewBox="0 0 30 14" fill="none" xmlns="http://www.w3.org/2000/svg">
<path d="M9.42905 10.072L9.32353 10.0017C9.00694 10.5059 8.52621 10.9163 7.91649 11.1859C6.74396 11.6901 5.66523 11.5611 4.89137 10.8811L4.82101 10.9866L3.49606 12.9682C3.82436 13.2027 4.17612 13.3903 4.55133 13.5427C6.01699 14.1524 7.51783 14.1173 8.99522 13.4841C10.0622 13.0268 10.8947 12.3116 11.4693 11.4204L9.45251 10.072H9.42905ZM5.29003 5.18258C4.05887 5.71022 3.4257 6.87103 3.55468 8.23116L8.78416 5.9799C7.88131 4.92463 6.72051 4.57287 5.30175 5.18258H5.29003ZM1.81934 11.2211C1.69036 11.0218 1.52621 10.6935 1.42068 10.459C0.822689 9.06365 0.787513 7.60972 1.30343 6.22614C1.86624 4.70185 2.93324 3.52932 4.31683 2.94305C6.05217 2.19263 7.97512 2.34506 9.64011 3.32999C10.6954 3.9397 11.4458 4.87773 12.0203 6.20268C12.0907 6.36684 12.161 6.55444 12.2197 6.70687L1.83106 11.2328L1.81934 11.2211Z" fill="#1D1D1B"/>
<path d="M15.8428 11.0335L17.5547 11.7253L16.5815 14L14.6937 13.2144C14.2716 13.0268 13.9785 12.7454 13.7557 12.4288C13.5446 12.1005 13.3922 11.6549 13.3922 11.057V0H15.8428V11.0335Z" fill="#1D1D1B"/>
<path d="M20.2867 8.23112C20.2867 7.29309 20.6971 6.44887 21.3537 5.87433L19.5949 3.91621C18.3989 4.97148 17.6485 6.5075 17.6485 8.23112C17.6485 9.94301 18.3989 11.4907 19.5832 12.546L21.342 10.5879C20.6853 10.0134 20.275 9.16914 20.275 8.24284L20.2867 8.23112Z" fill="#1D1D1B"/>
<path d="M23.4056 11.3618C23.0538 11.3618 22.7255 11.3032 22.4207 11.1977L21.5765 13.6951C22.151 13.8827 22.7607 13.9883 23.4056 13.9883C26.1845 13.9883 28.5178 12.0184 29.0572 9.39196L26.4776 8.86432C26.1845 10.2831 24.9182 11.3618 23.4173 11.3618H23.4056Z" fill="#1D1D1B"/>
<path d="M23.4173 2.47401C22.7842 2.47401 22.1627 2.57953 21.5882 2.76714L22.4207 5.26463C22.7373 5.1591 23.0656 5.10047 23.4173 5.10047C24.9299 5.10047 26.1962 6.1792 26.4776 7.60969L29.0572 7.08205C28.5296 4.45558 26.2079 2.47401 23.4173 2.46228V2.47401Z" fill="#1D1D1B"/>
</svg>
