<svg width="54" height="36" viewBox="0 0 54 36" fill="none" xmlns="http://www.w3.org/2000/svg">
<rect x="0.75" y="0.75" width="52.5" height="34.5" rx="3.25" fill="white"/>
<rect x="0.75" y="0.75" width="52.5" height="34.5" rx="3.25" stroke="#D6DCE5" stroke-width="0.5"/>
<path d="M21.4293 21.072L21.3238 21.0017C21.0072 21.5059 20.5265 21.9163 19.9167 22.1859C18.7442 22.6901 17.6655 22.5611 16.8916 21.8811L16.8213 21.9866L15.4963 23.9682C15.8246 24.2027 16.1764 24.3903 16.5516 24.5427C18.0172 25.1524 19.5181 25.1173 20.9955 24.4841C22.0625 24.0268 22.895 23.3116 23.4695 22.4204L21.4528 21.072H21.4293ZM17.2903 16.1826C16.0591 16.7102 15.4259 17.871 15.5549 19.2312L20.7844 16.9799C19.8816 15.9246 18.7208 15.5729 17.302 16.1826H17.2903ZM13.8196 22.2211C13.6906 22.0218 13.5265 21.6935 13.4209 21.459C12.8229 20.0637 12.7878 18.6097 13.3037 17.2261C13.8665 15.7018 14.9335 14.5293 16.3171 13.9431C18.0524 13.1926 19.9754 13.3451 21.6404 14.33C22.6956 14.9397 23.446 15.8777 24.0206 17.2027C24.0909 17.3668 24.1613 17.5544 24.2199 17.7069L13.8313 22.2328L13.8196 22.2211Z" fill="#1D1D1B"/>
<path d="M27.843 22.0335L29.5549 22.7253L28.5817 25L26.694 24.2144C26.2718 24.0268 25.9787 23.7454 25.7559 23.4288C25.5449 23.1005 25.3924 22.6549 25.3924 22.057V11H27.843V22.0335Z" fill="#1D1D1B"/>
<path d="M32.2869 19.2311C32.2869 18.2931 32.6973 17.4489 33.3539 16.8743L31.5951 14.9162C30.3991 15.9715 29.6487 17.5075 29.6487 19.2311C29.6487 20.943 30.3991 22.4907 31.5834 23.546L33.3422 21.5879C32.6856 21.0134 32.2752 20.1691 32.2752 19.2428L32.2869 19.2311Z" fill="#1D1D1B"/>
<path d="M35.4058 22.3618C35.0541 22.3618 34.7258 22.3032 34.4209 22.1977L33.5767 24.6951C34.1512 24.8827 34.761 24.9883 35.4058 24.9883C38.1847 24.9883 40.5181 23.0184 41.0574 20.392L38.4779 19.8643C38.1847 21.2831 36.9184 22.3618 35.4176 22.3618H35.4058Z" fill="#1D1D1B"/>
<path d="M35.4176 13.474C34.7844 13.474 34.163 13.5795 33.5884 13.7671L34.4209 16.2646C34.7375 16.1591 35.0658 16.1005 35.4176 16.1005C36.9301 16.1005 38.1965 17.1792 38.4779 18.6097L41.0574 18.082C40.5298 15.4556 38.2082 13.474 35.4176 13.4623V13.474Z" fill="#1D1D1B"/>
</svg>
