<svg width="20" height="16" viewBox="0 0 20 16" fill="none" xmlns="http://www.w3.org/2000/svg">
<path d="M-0.181641 4.77091V13.0909C-0.181641 13.8624 0.124852 14.6024 0.670412 15.1479C1.21597 15.6935 1.95591 16 2.72745 16H17.2729C18.0444 16 18.7844 15.6935 19.3299 15.1479C19.8755 14.6024 20.182 13.8624 20.182 13.0909V4.77091L11.5245 10.0975C11.0661 10.3795 10.5384 10.5288 10.0002 10.5288C9.46194 10.5288 8.93425 10.3795 8.47581 10.0975L-0.181641 4.77091Z" fill="black"/>
<path d="M20.182 3.0623V2.90909C20.182 2.13755 19.8755 1.39761 19.3299 0.852053C18.7844 0.306493 18.0444 0 17.2729 0H2.72745C1.95591 0 1.21597 0.306493 0.670412 0.852053C0.124852 1.39761 -0.181641 2.13755 -0.181641 2.90909V3.0623L9.23799 8.85915C9.46721 9.00017 9.73106 9.07483 10.0002 9.07483C10.2693 9.07483 10.5331 9.00017 10.7624 8.85915L20.182 3.0623Z" fill="black"/>
</svg>
