<svg width="21" height="20" viewBox="0 0 21 20" fill="none" xmlns="http://www.w3.org/2000/svg">
<path d="M15.7149 0H5.28446C2.40285 0 0.0585938 2.34495 0.0585938 5.22741V14.7726C0.0585938 17.6551 2.40285 20 5.28446 20H15.7149C18.5965 20 20.9408 17.6551 20.9408 14.7726V5.22741C20.9408 2.34495 18.5965 0 15.7149 0ZM1.90212 5.22741C1.90212 3.36208 3.41968 1.84406 5.28446 1.84406H15.7149C17.5797 1.84406 19.0973 3.36208 19.0973 5.22741V14.7726C19.0973 16.6379 17.5797 18.1559 15.7149 18.1559H5.28446C3.41968 18.1559 1.90212 16.6379 1.90212 14.7726V5.22741Z" fill="black"/>
<path d="M10.4997 14.8611C13.1794 14.8611 15.3607 12.6803 15.3607 9.9987C15.3607 7.31707 13.1806 5.13632 10.4997 5.13632C7.81889 5.13632 5.63878 7.31707 5.63878 9.9987C5.63878 12.6803 7.81889 14.8611 10.4997 14.8611ZM10.4997 6.98157C12.1637 6.98157 13.5172 8.33538 13.5172 9.99988C13.5172 11.6644 12.1637 13.0182 10.4997 13.0182C8.83572 13.0182 7.48231 11.6644 7.48231 9.99988C7.48231 8.33538 8.83572 6.98157 10.4997 6.98157Z" fill="black"/>
<path d="M15.8106 5.92202C16.5322 5.92202 17.1203 5.3349 17.1203 4.61192C17.1203 3.88894 16.5334 3.30182 15.8106 3.30182C15.0879 3.30182 14.5009 3.88894 14.5009 4.61192C14.5009 5.3349 15.0879 5.92202 15.8106 5.92202Z" fill="black"/>
</svg>
