<svg width="24" height="24" viewBox="0 0 24 24" fill="none" xmlns="http://www.w3.org/2000/svg">
<path d="M23.6785 13.408C23.7335 15.8253 23.8434 18.3525 23.7335 20.8798C23.6785 21.8687 23.0193 22.8026 22.1402 23.352C21.426 23.7916 20.6019 23.8465 19.7229 23.9014L16.4814 23.8465V3.13424C16.6463 1.76075 17.6352 0.552074 18.9537 0.222436C20.547 0.00267708 22.0304 0.112557 23.6785 0.0576172L23.7335 1.10147V12.8586L23.6785 12.9135V13.408Z" fill="#00A551"/>
<path d="M0.274665 12.6387V2.85946C0.494424 1.76066 1.37346 0.716807 2.41731 0.332229C4.01056 -0.162228 5.82357 0.112471 7.47177 0.112471C7.5267 1.70572 7.47176 3.68355 7.5267 5.05704L7.58164 17.803C7.36189 19.7809 8.13104 22.418 5.65876 23.5168C4.12044 24.2859 2.03274 23.7915 0.274665 23.9563L0.219727 23.6816V13.0233V12.6387H0.274665Z" fill="#0071BB"/>
<path d="M0.274414 13.0233C0.93369 13.9023 1.81273 14.5066 2.91152 14.5616C4.23007 14.6714 5.98814 14.7813 6.92212 13.5177C7.52645 12.8584 7.14188 11.9794 7.3067 11.1004L7.25175 9.56206C6.4826 9.39724 5.76838 9.56206 4.88935 9.50712C4.44983 11.1553 5.60357 13.0233 3.73562 13.9023C3.2961 14.0122 2.63682 13.9572 2.1973 13.6825C1.48309 13.5177 1.86767 12.364 0.878752 12.6387L0.329355 12.5837V13.0233H0.274414Z" fill="white"/>
<path d="M15.6024 1.43111L15.6573 21.2643C15.3826 22.1983 14.6135 23.2422 13.6245 23.5718C12.0862 24.1212 10.1633 23.8465 8.46021 23.8465L8.40527 2.96942C8.46021 1.98051 9.11949 1.15641 9.99852 0.607014C10.6029 0.222436 11.3171 0.0576172 12.1412 0.0576172H15.6024V1.43111Z" fill="#EC1C24"/>
<path d="M15.2731 9.61695C15.3281 9.83671 15.2731 10.0565 15.328 10.3312C14.1194 10.0015 12.5811 9.61695 11.4823 10.5509C11.0977 11.0454 10.823 11.5398 10.8779 12.1991C10.9878 12.9133 11.4273 13.6275 12.1415 13.9022C13.1854 14.2319 14.2842 13.9572 15.2731 13.6825C15.3281 13.9022 15.3281 14.1769 15.2731 14.3418H10.6032C9.77914 14.1769 9.11986 13.7374 8.79023 12.9133C8.46059 12.1442 8.62541 11.1003 9.1748 10.441C9.66926 9.89165 10.3285 9.56201 11.1526 9.56201L15.2731 9.61695Z" fill="white"/>
<path d="M23.6793 13.4078C23.5694 13.9022 23.1299 14.3417 22.6354 14.4516H16.9767L16.7569 14.3967C16.7569 12.7485 16.702 11.2102 16.8118 9.61693H20.4379C21.5916 9.72681 22.8552 9.23235 23.3497 10.3311C23.5145 10.7157 23.4595 11.2102 23.1848 11.4849C23.02 11.7596 22.6354 11.8145 22.5805 12.0343C23.02 12.1442 23.5145 12.5287 23.6793 12.9682V13.4078ZM18.7897 10.0564C18.6798 10.496 18.6798 11.1003 18.7347 11.5948C19.6138 11.5398 20.7126 11.8695 21.262 11.2102C21.4817 10.9904 21.3169 10.5509 21.207 10.3311C20.6027 9.83669 19.6138 10.1663 18.7897 10.0564ZM20.9873 12.309C20.2181 12.1991 19.4489 12.254 18.7347 12.254C18.6798 12.8584 18.7347 13.3528 18.7897 13.9022C19.6138 13.9022 20.4928 14.0121 21.207 13.6825C21.4268 13.4627 21.5367 13.1331 21.4268 12.8584C21.4817 12.6386 21.262 12.4189 20.9873 12.309Z" fill="white"/>
</svg>
