<svg width="54" height="36" viewBox="0 0 54 36" fill="none" xmlns="http://www.w3.org/2000/svg">
<rect x="0.75" y="0.75" width="52.5" height="34.5" rx="3.25" fill="white"/>
<rect x="0.75" y="0.75" width="52.5" height="34.5" rx="3.25" stroke="#D6DCE5" stroke-width="0.5"/>
<path d="M38.6788 19.408C38.7337 21.8253 38.8436 24.3525 38.7337 26.8798C38.6788 27.8687 38.0195 28.8026 37.1405 29.352C36.4263 29.7916 35.6022 29.8465 34.7231 29.9014L31.4817 29.8465V9.13424C31.6465 7.76075 32.6354 6.55207 33.954 6.22244C35.5472 6.00268 37.0306 6.11256 38.6788 6.05762L38.7337 7.10147V18.8586L38.6788 18.9135V19.408Z" fill="#00A551"/>
<path d="M15.2744 18.6387V8.85946C15.4942 7.76066 16.3732 6.71681 17.4171 6.33223C19.0103 5.83777 20.8233 6.11247 22.4715 6.11247C22.5265 7.70572 22.4715 9.68355 22.5265 11.057L22.5814 23.803C22.3616 25.7809 23.1308 28.418 20.6585 29.5168C19.1202 30.2859 17.0325 29.7915 15.2744 29.9563L15.2195 29.6816V19.0233V18.6387H15.2744Z" fill="#0071BB"/>
<path d="M15.2744 19.0233C15.9337 19.9023 16.8127 20.5066 17.9115 20.5616C19.2301 20.6714 20.9881 20.7813 21.9221 19.5177C22.5265 18.8584 22.1419 17.9794 22.3067 17.1004L22.2518 15.5621C21.4826 15.3972 20.7684 15.5621 19.8893 15.5071C19.4498 17.1553 20.6036 19.0233 18.7356 19.9023C18.2961 20.0122 17.6368 19.9572 17.1973 19.6825C16.4831 19.5177 16.8677 18.364 15.8788 18.6387L15.3294 18.5837V19.0233H15.2744Z" fill="white"/>
<path d="M30.6026 7.43111L30.6576 27.2643C30.3829 28.1983 29.6137 29.2422 28.6248 29.5718C27.0865 30.1212 25.1636 29.8465 23.4605 29.8465L23.4055 8.96942C23.4605 7.98051 24.1197 7.15641 24.9988 6.60701C25.6031 6.22244 26.3173 6.05762 27.1414 6.05762H30.6026V7.43111Z" fill="#EC1C24"/>
<path d="M30.2731 15.617C30.3281 15.8367 30.2731 16.0565 30.328 16.3312C29.1194 16.0015 27.5811 15.617 26.4823 16.5509C26.0977 17.0454 25.823 17.5398 25.8779 18.1991C25.9878 18.9133 26.4273 19.6275 27.1415 19.9022C28.1854 20.2319 29.2842 19.9572 30.2731 19.6825C30.3281 19.9022 30.3281 20.1769 30.2731 20.3418H25.6032C24.7791 20.1769 24.1199 19.7374 23.7902 18.9133C23.4606 18.1442 23.6254 17.1003 24.1748 16.441C24.6693 15.8917 25.3285 15.562 26.1526 15.562L30.2731 15.617Z" fill="white"/>
<path d="M38.6788 19.4078C38.5689 19.9022 38.1294 20.3417 37.635 20.4516H31.9762L31.7564 20.3967C31.7564 18.7485 31.7015 17.2102 31.8113 15.6169H35.4374C36.5911 15.7268 37.8547 15.2324 38.3492 16.3311C38.514 16.7157 38.4591 17.2102 38.1844 17.4849C38.0195 17.7596 37.635 17.8145 37.58 18.0343C38.0195 18.1442 38.514 18.5287 38.6788 18.9682V19.4078ZM33.7892 16.0564C33.6793 16.496 33.6793 17.1003 33.7342 17.5948C34.6133 17.5398 35.7121 17.8695 36.2615 17.2102C36.4812 16.9904 36.3164 16.5509 36.2065 16.3311C35.6022 15.8367 34.6133 16.1663 33.7892 16.0564ZM35.9868 18.309C35.2176 18.1991 34.4485 18.254 33.7342 18.254C33.6793 18.8584 33.7342 19.3528 33.7892 19.9022C34.6133 19.9022 35.4923 20.0121 36.2065 19.6825C36.4263 19.4627 36.5362 19.1331 36.4263 18.8584C36.4812 18.6386 36.2615 18.4189 35.9868 18.309Z" fill="white"/>
</svg>
