<svg width="18" height="20" viewBox="0 0 18 20" fill="none" xmlns="http://www.w3.org/2000/svg">
<path fill-rule="evenodd" clip-rule="evenodd" d="M8.54548 19.8543L8.61462 19.8938L8.64227 19.9096C8.75195 19.9689 8.87466 20 8.99934 20C9.12402 20 9.24673 19.9689 9.3564 19.9096L9.38406 19.8948L9.45419 19.8543C9.8405 19.6253 10.2175 19.3808 10.5841 19.1214C11.5334 18.4512 12.4204 17.6969 13.2342 16.8674C15.1544 14.9019 17.1486 11.9486 17.1486 8.14876C17.1486 5.98757 16.2901 3.9149 14.7619 2.38672C13.2337 0.858527 11.161 0 8.99983 0C6.83865 0 4.76598 0.858527 3.23779 2.38672C1.7096 3.9149 0.851074 5.98757 0.851074 8.14876C0.851074 11.9476 2.84629 14.9019 4.76544 16.8674C5.57898 17.6968 6.46559 18.4512 7.41453 19.1214C7.78154 19.3808 8.15882 19.6253 8.54548 19.8543ZM8.99983 11.1119C9.78572 11.1119 10.5394 10.7998 11.0951 10.244C11.6508 9.68834 11.963 8.93464 11.963 8.14876C11.963 7.36287 11.6508 6.60918 11.0951 6.05347C10.5394 5.49777 9.78572 5.18557 8.99983 5.18557C8.21395 5.18557 7.46025 5.49777 6.90454 6.05347C6.34884 6.60918 6.03665 7.36287 6.03665 8.14876C6.03665 8.93464 6.34884 9.68834 6.90454 10.244C7.46025 10.7998 8.21395 11.1119 8.99983 11.1119Z" fill="black"/>
</svg>
