<svg width="55" height="36" viewBox="0 0 55 36" fill="none" xmlns="http://www.w3.org/2000/svg">
<rect x="0.75" y="0.75" width="53.5" height="34.5" rx="3.25" fill="white"/>
<rect x="0.75" y="0.75" width="53.5" height="34.5" rx="3.25" stroke="#D6DCE5" stroke-width="0.5"/>
<path d="M31.3073 11.0181H23.5038V24.9819H31.3073V11.0181Z" fill="#FF5F00"/>
<path d="M23.9993 18C23.9981 16.6552 24.3041 15.3277 24.8943 14.1181C25.4844 12.9084 26.3432 11.8483 27.4056 11.0181C26.09 9.98831 24.5099 9.34793 22.8461 9.1701C21.1822 8.99228 19.5017 9.28417 17.9966 10.0124C16.4915 10.7407 15.2225 11.876 14.3347 13.2885C13.4469 14.7009 12.9761 16.3337 12.9761 18C12.9761 19.6663 13.4469 21.299 14.3347 22.7115C15.2225 24.124 16.4915 25.2592 17.9966 25.9875C19.5017 26.7158 21.1822 27.0077 22.8461 26.8299C24.5099 26.652 26.09 26.0116 27.4056 24.9819C26.3432 24.1516 25.4844 23.0915 24.8943 21.8819C24.3041 20.6723 23.9981 19.3448 23.9993 18Z" fill="#EB001B"/>
<path d="M41.8346 18C41.8347 19.6663 41.3639 21.299 40.4762 22.7115C39.5884 24.124 38.3195 25.2592 36.8144 25.9875C35.3093 26.7158 33.6288 27.0077 31.965 26.8299C30.3012 26.652 28.7212 26.0117 27.4056 24.9819C28.467 24.1508 29.3251 23.0905 29.9152 21.8811C30.5052 20.6716 30.8118 19.3446 30.8118 18C30.8118 16.6554 30.5052 15.3283 29.9152 14.1189C29.3251 12.9094 28.467 11.8492 27.4056 11.0181C28.7212 9.98831 30.3012 9.34793 31.965 9.1701C33.6288 8.99228 35.3093 9.28419 36.8144 10.0125C38.3195 10.7407 39.5884 11.876 40.4762 13.2885C41.3639 14.701 41.8347 16.3337 41.8346 18Z" fill="#F79E1B"/>
<path d="M40.9838 23.5029V23.217H41.0996V23.1588H40.8047V23.217H40.9205V23.5029H40.9838ZM41.5562 23.5029V23.1582H41.4658L41.3619 23.3953L41.2579 23.1582H41.1675V23.5029H41.2313V23.2429L41.3288 23.4671H41.3949L41.4924 23.2423V23.5029H41.5562Z" fill="#F79E1B"/>
</svg>
