<svg width="30" height="18" viewBox="0 0 30 18" fill="none" xmlns="http://www.w3.org/2000/svg">
<path d="M19.3068 2.01807H11.5033V15.9819H19.3068V2.01807Z" fill="#FF5F00"/>
<path d="M11.9988 8.99998C11.9976 7.65516 12.3036 6.32769 12.8938 5.11806C13.4839 3.90842 14.3427 2.84834 15.4051 2.01806C14.0895 0.988314 12.5094 0.347932 10.8456 0.170104C9.18174 -0.00772294 7.50123 0.284175 5.99611 1.01245C4.49099 1.74072 3.22201 2.87598 2.3342 4.28846C1.44639 5.70094 0.975586 7.33365 0.975586 8.99998C0.975586 10.6663 1.44639 12.299 2.3342 13.7115C3.22201 15.124 4.49099 16.2592 5.99611 16.9875C7.50123 17.7158 9.18174 18.0077 10.8456 17.8299C12.5094 17.652 14.0895 17.0116 15.4051 15.9819C14.3427 15.1516 13.4839 14.0915 12.8938 12.8819C12.3037 11.6723 11.9976 10.3448 11.9988 8.99998Z" fill="#EB001B"/>
<path d="M29.8341 8.99998C29.8342 10.6663 29.3635 12.299 28.4757 13.7115C27.5879 15.124 26.319 16.2592 24.8139 16.9875C23.3088 17.7158 21.6283 18.0077 19.9645 17.8299C18.3007 17.652 16.7207 17.0117 15.4051 15.9819C16.4665 15.1508 17.3247 14.0905 17.9147 12.8811C18.5047 11.6716 18.8113 10.3446 18.8113 8.99998C18.8113 7.65537 18.5047 6.32832 17.9147 5.11888C17.3247 3.90943 16.4665 2.84918 15.4051 2.01806C16.7207 0.988313 18.3007 0.347927 19.9645 0.170102C21.6283 -0.00772303 23.3088 0.284187 24.8139 1.01247C26.319 1.74075 27.5879 2.87601 28.4757 4.28849C29.3635 5.70097 29.8342 7.33367 29.8341 8.99998Z" fill="#F79E1B"/>
<path d="M28.9833 14.5029V14.217H29.0991V14.1588H28.8042V14.217H28.9201V14.5029H28.9833ZM29.5557 14.5029V14.1582H29.4653L29.3614 14.3953L29.2574 14.1582H29.167V14.5029H29.2308V14.2429L29.3283 14.4671H29.3944L29.4919 14.2423V14.5029H29.5557Z" fill="#F79E1B"/>
</svg>
