<svg width="18" height="18" viewBox="0 0 18 18" fill="none" xmlns="http://www.w3.org/2000/svg">
<path d="M11.1764 3.14094C10.7479 3.0618 10.3544 3.33521 10.2729 3.75342C10.1913 4.17164 10.4656 4.57996 10.8824 4.6618C12.1372 4.90643 13.1061 5.87777 13.3517 7.1369C13.4216 7.49935 13.7407 7.76377 14.1082 7.76377C14.1575 7.76377 14.2068 7.75927 14.2569 7.75028C14.6737 7.66664 14.948 7.25922 14.8664 6.8401C14.4998 4.9595 13.0523 3.50699 11.1764 3.14094Z" fill="black"/>
<path d="M11.1203 0.00713679C10.9196 -0.0216434 10.7179 0.0377158 10.5575 0.165428C10.3925 0.294939 10.2895 0.482011 10.2671 0.691567C10.2196 1.11518 10.5252 1.49831 10.9482 1.54598C13.8657 1.87156 16.1334 4.1443 16.4614 7.07089C16.5053 7.46302 16.8343 7.75891 17.2268 7.75891C17.2564 7.75891 17.2851 7.75711 17.3147 7.75352C17.5199 7.73103 17.7028 7.6294 17.8318 7.46751C17.96 7.30562 18.0183 7.10416 17.995 6.8982C17.5863 3.24671 14.7602 0.412758 11.1203 0.00713679Z" fill="black"/>
<path fill-rule="evenodd" clip-rule="evenodd" d="M8.12848 9.87515C11.7186 13.4643 12.5331 9.31205 14.8189 11.5963C17.0227 13.7995 18.2893 14.2409 15.4971 17.0323C15.1474 17.3133 12.9253 20.6948 5.11609 12.8877C-2.6941 5.0796 0.685419 2.8552 0.966562 2.50555C3.76544 -0.293539 4.19923 0.980445 6.40297 3.1836C8.68883 5.46885 4.53834 6.28597 8.12848 9.87515Z" fill="black"/>
</svg>
