<svg width="134" height="75" viewBox="0 0 134 75" fill="none" xmlns="http://www.w3.org/2000/svg">
<g filter="url(#filter0_dd_106_1017)">
<g clip-path="url(#clip0_106_1017)">
<rect x="41" y="21" width="52" height="34" rx="3" fill="white"/>
<path d="M45.6389 21H60.3383C62.3904 21 63.189 21.6289 63.189 24.4454L63.14 51.5604C62.6564 53.4561 60.6029 55 58.5502 55H43.85C41.7973 55 41 53.6815 41 51.5604L41.0525 24.4454C41.0525 22.455 42 20.5 45.6389 21Z" fill="#ED171F"/>
<path d="M75.3526 21H90.05C92.1034 21 93.3795 22.544 92.8986 24.4454L92.8509 51.5604C92.3701 53.4561 90.3173 55 88.2577 55H73.5645C71.5076 55 70.7158 53.6875 70.7158 51.5604L70.7614 24.4454C71.243 22.544 73.295 21 75.3526 21Z" fill="#006A65"/>
<path d="M56 25C56 22.7909 57.7909 21 60 21H74C76.2091 21 78 22.7909 78 25V51C78 53.2092 76.2091 55 74 55H60C57.7909 55 56 53.2092 56 51V25Z" fill="#082F67"/>
<path d="M75.3526 21H90.05C92.1034 21 93.3795 22.544 92.8986 24.4454L92.8509 51.5604C92.3701 53.4561 90.3173 55 88.2577 55H73.5645C71.5076 55 70.7158 53.6875 70.7158 51.5604L70.7614 24.4454C71.243 22.544 73.295 21 75.3526 21Z" fill="#006A65"/>
<path d="M60.6881 33.7666C60.6532 34.3821 60.1422 34.8699 59.515 34.8699C59.2943 34.8699 59.0853 34.8002 58.9459 34.6492C58.8181 34.5099 58.7485 34.3124 58.7601 34.1034C58.7949 33.4762 59.3059 33 59.9215 33C60.1538 33 60.3629 33.0697 60.5022 33.2207C60.63 33.3601 60.6997 33.5575 60.6881 33.7666Z" fill="white"/>
<path d="M54.184 37.5993L53.5104 40.5029H51.9541L52.86 36.5424C52.9447 36.2036 52.9908 35.8551 53.0336 35.5322V35.5319L53.0458 35.439L53.0574 35.3693H54.184L54.3234 36.1359C54.8228 35.5203 55.3455 35.2648 56.0888 35.2648C56.9947 35.2648 57.5173 35.7526 57.5057 36.5656C57.5057 36.7515 57.4825 36.9489 57.436 37.1463L56.6695 40.4913H55.0899L55.2758 39.7828L55.8449 37.3786C55.8531 37.3403 55.8619 37.3026 55.8707 37.2654C55.8818 37.2182 55.8927 37.1718 55.9019 37.1258C55.908 37.0952 55.9133 37.0648 55.9174 37.0345C55.9191 37.0226 55.9205 37.0108 55.9217 36.999C55.9246 36.9706 55.9262 36.9423 55.9262 36.914C55.9378 36.5424 55.752 36.3565 55.3687 36.3565C54.5905 36.3565 54.2886 37.1347 54.184 37.5993Z" fill="white"/>
<path d="M67.738 37.5993C67.8425 37.1347 68.1445 36.3566 68.9227 36.3566C69.306 36.3566 69.4918 36.5424 69.4802 36.9141C69.4802 37.065 69.4453 37.216 69.3989 37.3786L68.8298 39.7944L68.6672 40.5029H70.2235L70.9901 37.158C71.0365 36.9605 71.0597 36.7631 71.0597 36.5772C71.0714 35.7642 70.5487 35.2764 69.6544 35.2764C68.9111 35.2764 68.3884 35.5319 67.889 36.1475L67.7496 35.3809H66.623L66.6114 35.4506L66.5992 35.5429C66.5565 35.8661 66.5104 36.2149 66.4256 36.554L65.5197 40.5145H67.0644L67.738 37.5993Z" fill="white"/>
<path fill-rule="evenodd" clip-rule="evenodd" d="M60.0609 38.7259C60.1074 36.6934 61.4779 35.2764 63.4174 35.2764C64.5092 35.2764 65.5893 35.8572 65.5545 37.1464C65.5197 39.144 64.1027 40.6074 62.2096 40.6074C61.1294 40.6074 60.0377 40.0267 60.0609 38.7259ZM61.6753 38.5749C61.6521 39.2137 61.9076 39.5273 62.4419 39.5273C63.4059 39.5273 63.9633 38.0639 63.9866 37.3089C63.9982 36.8676 63.8588 36.3566 63.1736 36.3566C62.1979 36.3566 61.6869 37.7735 61.6753 38.5749Z" fill="white"/>
<path fill-rule="evenodd" clip-rule="evenodd" d="M78.1329 40.6191C78.8646 40.6191 79.4685 40.2822 79.9447 39.597C79.9215 40.0383 80.0725 40.3519 80.3745 40.5029L80.3861 40.5145H81.3152V40.4332C81.3384 39.9106 81.4313 39.3298 81.5823 38.6911L82.3373 35.5319L82.2676 35.5087C81.9191 35.3809 81.1758 35.2764 80.5835 35.2764C78.6787 35.2764 76.5998 36.6818 76.5533 38.9582C76.5649 39.9803 77.1572 40.6191 78.1329 40.6191ZM80.328 36.3449C80.4093 36.3449 80.5254 36.3449 80.63 36.3798L80.3628 37.4599C80.0608 38.6562 79.3872 39.5389 78.7717 39.5389C78.3768 39.5389 78.1793 39.295 78.1909 38.8072C78.2142 37.518 79.2362 36.3449 80.328 36.3449Z" fill="white"/>
<path fill-rule="evenodd" clip-rule="evenodd" d="M74.335 38.0174H73.1387L72.5812 40.4913H70.9552L71.1062 39.7828L72.6044 33.4065H75.3919C76.4836 33.4065 77.3199 34.1731 77.2966 35.1603C77.2618 36.9721 75.7635 38.0174 74.335 38.0174ZM74.6602 34.5447H73.9517L73.3942 36.8792H73.7891C75.0086 36.8792 75.659 36.2056 75.6706 35.2997C75.6822 34.8119 75.1596 34.5447 74.6602 34.5447Z" fill="white"/>
<path d="M48.4813 40.5958C50.328 40.5958 51.4314 39.7247 51.8495 37.9361L52.8948 33.3717H51.2572L51.1527 33.8827C51.141 33.9524 50.2235 37.8896 50.2119 37.9361C49.9912 38.9001 49.4802 39.3879 48.702 39.3879C47.9935 39.3879 47.5522 39.0511 47.5638 38.5168C47.5638 38.3542 47.587 38.1916 47.6451 37.971L48.702 33.3833H47.076L46.9831 33.8595L46.0191 37.9826C45.9726 38.2265 45.9378 38.4588 45.9378 38.7027C45.9146 40.0964 47.2386 40.5958 48.4813 40.5958Z" fill="white"/>
<path d="M60.0841 35.3693L58.8995 40.5145H57.3199L57.4941 39.806L58.5394 35.3693H60.0841Z" fill="white"/>
<path d="M84.6137 39.0279L86.4255 35.3926H88.0632L84.7647 41.1998C84.2304 42.1405 83.6149 43 82.0121 43H80.7381V41.7573H81.4662C81.5177 41.7573 81.572 41.7582 81.6283 41.7592C82.2317 41.7695 83.0705 41.7839 83.3361 40.7003L82.8599 35.3926H84.4743L84.6137 39.0279Z" fill="white"/>
</g>
<rect x="40.75" y="20.75" width="52.5" height="34.5" rx="3.25" stroke="#D6DCE5" stroke-width="0.5"/>
</g>
<defs>
<filter id="filter0_dd_106_1017" x="0.5" y="0.5" width="133" height="115" filterUnits="userSpaceOnUse" color-interpolation-filters="sRGB">
<feFlood flood-opacity="0" result="BackgroundImageFix"/>
<feColorMatrix in="SourceAlpha" type="matrix" values="0 0 0 0 0 0 0 0 0 0 0 0 0 0 0 0 0 0 127 0" result="hardAlpha"/>
<feOffset dy="2"/>
<feGaussianBlur stdDeviation="10"/>
<feColorMatrix type="matrix" values="0 0 0 0 0.717647 0 0 0 0 0.717647 0 0 0 0 0.717647 0 0 0 0.08 0"/>
<feBlend mode="normal" in2="BackgroundImageFix" result="effect1_dropShadow_106_1017"/>
<feColorMatrix in="SourceAlpha" type="matrix" values="0 0 0 0 0 0 0 0 0 0 0 0 0 0 0 0 0 0 127 0" result="hardAlpha"/>
<feOffset dy="20"/>
<feGaussianBlur stdDeviation="20"/>
<feColorMatrix type="matrix" values="0 0 0 0 0.717647 0 0 0 0 0.717647 0 0 0 0 0.717647 0 0 0 0.08 0"/>
<feBlend mode="normal" in2="effect1_dropShadow_106_1017" result="effect2_dropShadow_106_1017"/>
<feBlend mode="normal" in="SourceGraphic" in2="effect2_dropShadow_106_1017" result="shape"/>
</filter>
<clipPath id="clip0_106_1017">
<rect x="41" y="21" width="52" height="34" rx="3" fill="white"/>
</clipPath>
</defs>
</svg>
