<svg width="54" height="36" viewBox="0 0 54 36" fill="none" xmlns="http://www.w3.org/2000/svg">
<g clip-path="url(#clip0_106_357)">
<rect x="1" y="1" width="52" height="34" rx="3" fill="white"/>
<path d="M5.63885 1.00004H20.3383C22.3904 1.00004 23.189 1.62892 23.189 4.44537L23.14 31.5604C22.6564 33.4561 20.6029 35 18.5502 35H3.85005C1.7973 35 1.00001 33.6815 1 31.5604L1.0525 4.44537C1.0525 2.45499 2 0.5 5.63885 1.00004Z" fill="#ED171F"/>
<path d="M35.3526 1.00004H50.05C52.1034 1.00004 53.3795 2.544 52.8986 4.44537L52.8509 31.5604C52.3701 33.4561 50.3173 35 48.2577 35H33.5645C31.5076 35 30.7158 33.6875 30.7158 31.5604L30.7614 4.44537C31.243 2.544 33.295 1.00004 35.3526 1.00004Z" fill="#006A65"/>
<path d="M16 5.00004C16 2.7909 17.7909 1.00004 20 1.00004H34C36.2091 1.00004 38 2.7909 38 5.00004V31C38 33.2092 36.2091 35 34 35H20C17.7909 35 16 33.2092 16 31V5.00004Z" fill="#082F67"/>
<path d="M35.3526 1.00004H50.05C52.1034 1.00004 53.3795 2.544 52.8986 4.44537L52.8509 31.5604C52.3701 33.4561 50.3173 35 48.2577 35H33.5645C31.5076 35 30.7158 33.6875 30.7158 31.5604L30.7614 4.44537C31.243 2.544 33.295 1.00004 35.3526 1.00004Z" fill="#006A65"/>
<path d="M20.6878 13.7666C20.653 14.3821 20.142 14.8699 19.5148 14.8699C19.2941 14.8699 19.085 14.8002 18.9457 14.6492C18.8179 14.5099 18.7482 14.3124 18.7598 14.1034C18.7947 13.4762 19.3057 13 19.9213 13C20.1536 13 20.3626 13.0697 20.502 13.2207C20.6298 13.3601 20.6994 13.5575 20.6878 13.7666Z" fill="white"/>
<path d="M14.1838 17.5993L13.5102 20.5029H11.9538L12.8597 16.5424C12.9444 16.2036 12.9905 15.8551 13.0333 15.5322V15.5319L13.0456 15.439L13.0572 15.3693H14.1838L14.3232 16.1359C14.8226 15.5203 15.3452 15.2648 16.0885 15.2648C16.9944 15.2648 17.5171 15.7526 17.5055 16.5656C17.5055 16.7515 17.4823 16.9489 17.4358 17.1463L16.6693 20.4913H15.0897L15.2755 19.7828L15.8446 17.3786C15.8529 17.3403 15.8617 17.3026 15.8704 17.2654C15.8816 17.2182 15.8925 17.1718 15.9016 17.1258C15.9078 17.0952 15.9131 17.0648 15.9172 17.0345C15.9188 17.0226 15.9202 17.0108 15.9214 16.999C15.9243 16.9706 15.9259 16.9423 15.9259 16.914C15.9376 16.5424 15.7517 16.3565 15.3685 16.3565C14.5903 16.3565 14.2883 17.1347 14.1838 17.5993Z" fill="white"/>
<path d="M27.7378 17.5993C27.8423 17.1347 28.1443 16.3566 28.9224 16.3566C29.3057 16.3566 29.4915 16.5424 29.4799 16.9141C29.4799 17.065 29.4451 17.216 29.3986 17.3786L28.8295 19.7944L28.6669 20.5029H30.2232L30.9898 17.158C31.0363 16.9605 31.0595 16.7631 31.0595 16.5772C31.0711 15.7642 30.5485 15.2764 29.6542 15.2764C28.9108 15.2764 28.3882 15.5319 27.8887 16.1475L27.7494 15.3809H26.6228L26.6112 15.4506L26.599 15.5429C26.5562 15.8661 26.5101 16.2149 26.4254 16.554L25.5194 20.5145H27.0641L27.7378 17.5993Z" fill="white"/>
<path fill-rule="evenodd" clip-rule="evenodd" d="M20.0607 18.7259C20.1071 16.6934 21.4776 15.2764 23.4172 15.2764C24.509 15.2764 25.5891 15.8572 25.5543 17.1464C25.5194 19.144 24.1025 20.6074 22.2093 20.6074C21.1292 20.6074 20.0374 20.0267 20.0607 18.7259ZM21.675 18.5749C21.6518 19.2137 21.9073 19.5273 22.4416 19.5273C23.4056 19.5273 23.9631 18.0639 23.9863 17.3089C23.9979 16.8676 23.8586 16.3566 23.1733 16.3566C22.1977 16.3566 21.6867 17.7735 21.675 18.5749Z" fill="white"/>
<path fill-rule="evenodd" clip-rule="evenodd" d="M38.1326 20.6191C38.8643 20.6191 39.4683 20.2822 39.9445 19.597C39.9212 20.0383 40.0722 20.3519 40.3742 20.5029L40.3858 20.5145H41.315V20.4332C41.3382 19.9106 41.4311 19.3298 41.5821 18.6911L42.337 15.5319L42.2673 15.5087C41.9189 15.3809 41.1756 15.2764 40.5832 15.2764C38.6785 15.2764 36.5995 16.6818 36.5531 18.9582C36.5647 19.9803 37.157 20.6191 38.1326 20.6191ZM40.3277 16.3449C40.409 16.3449 40.5252 16.3449 40.6297 16.3798L40.3626 17.4599C40.0606 18.6562 39.387 19.5389 38.7714 19.5389C38.3765 19.5389 38.1791 19.295 38.1907 18.8072C38.2139 17.518 39.236 16.3449 40.3277 16.3449Z" fill="white"/>
<path fill-rule="evenodd" clip-rule="evenodd" d="M34.3347 18.0174H33.1384L32.5809 20.4913H30.9549L31.1059 19.7828L32.6042 13.4065H35.3916C36.4834 13.4065 37.3196 14.1731 37.2964 15.1603C37.2615 16.9721 35.7633 18.0174 34.3347 18.0174ZM34.6599 14.5447H33.9514L33.394 16.8792H33.7888C35.0083 16.8792 35.6588 16.2056 35.6704 15.2997C35.682 14.8119 35.1593 14.5447 34.6599 14.5447Z" fill="white"/>
<path d="M8.4811 20.5958C10.3278 20.5958 11.4311 19.7247 11.8493 17.9361L12.8946 13.3717H11.2569L11.1524 13.8827C11.1408 13.9524 10.2233 17.8896 10.2116 17.9361C9.99097 18.9001 9.47994 19.3879 8.70176 19.3879C7.9933 19.3879 7.55194 19.0511 7.56357 18.5168C7.56357 18.3542 7.5868 18.1916 7.64487 17.971L8.70176 13.3833H7.07574L6.98285 13.8595L6.01885 17.9826C5.97238 18.2265 5.93756 18.4588 5.93756 18.7027C5.91431 20.0964 7.23836 20.5958 8.4811 20.5958Z" fill="white"/>
<path d="M20.0839 15.3693L18.8992 20.5145H17.3197L17.4939 19.806L18.5392 15.3693H20.0839Z" fill="white"/>
<path d="M44.6135 19.0279L46.4253 15.3926H48.0629L44.7644 21.1998C44.2302 22.1405 43.6146 23 42.0118 23H40.7379V21.7573H41.466C41.5175 21.7573 41.5717 21.7582 41.6281 21.7592C42.2314 21.7695 43.0703 21.7839 43.3359 20.7003L42.8597 15.3926H44.4741L44.6135 19.0279Z" fill="white"/>
</g>
<rect x="0.75" y="0.75" width="52.5" height="34.5" rx="3.25" stroke="#D6DCE5" stroke-width="0.5"/>
<defs>
<clipPath id="clip0_106_357">
<rect x="1" y="1" width="52" height="34" rx="3" fill="white"/>
</clipPath>
</defs>
</svg>
