<svg width="54" height="36" viewBox="0 0 54 36" fill="none" xmlns="http://www.w3.org/2000/svg">
<rect x="0.75" y="0.75" width="52.5" height="34.5" rx="3.25" fill="white"/>
<rect x="0.75" y="0.75" width="52.5" height="34.5" rx="3.25" stroke="#D6DCE5" stroke-width="0.5"/>
<path d="M26.682 12.4595L24.2566 23.9666H21.3237L23.7495 12.4595H26.682ZM39.0217 19.8897L40.5659 15.5684L41.4544 19.8897H39.0217ZM42.2941 23.9666H45.007L42.6397 12.4595H40.1356C39.5729 12.4595 39.0982 12.7917 38.8868 13.3038L34.4866 23.9666H37.5666L38.1781 22.2483H41.941L42.2941 23.9666ZM34.6395 20.2094C34.652 17.1723 30.5012 17.0052 30.53 15.6485C30.5386 15.2351 30.9265 14.7966 31.7737 14.6841C32.1947 14.6284 33.3519 14.5858 34.666 15.1994L35.1806 12.7593C34.4748 12.4992 33.5665 12.249 32.4369 12.249C29.5381 12.249 27.4977 13.8133 27.4805 16.0531C27.4622 17.7095 28.937 18.6339 30.0484 19.1846C31.191 19.7487 31.5749 20.11 31.5699 20.6144C31.5624 21.3869 30.6584 21.7271 29.8151 21.7406C28.3403 21.7642 27.4844 21.3367 26.8022 21.014L26.2708 23.5354C26.9558 23.8548 28.2208 24.1323 29.5331 24.1465C32.6138 24.1465 34.6294 22.6015 34.6395 20.2094ZM22.491 12.4595L17.7392 23.9666H14.6384L12.3001 14.7832C12.158 14.2175 12.0346 14.0107 11.6029 13.7721C10.8984 13.3842 9.73398 13.0197 8.70947 12.7939L8.77945 12.4595H13.77C14.4058 12.4595 14.9782 12.8893 15.1224 13.6326L16.3576 20.2918L19.4096 12.4595H22.491Z" fill="#1434CB"/>
</svg>
