<svg width="37" height="13" viewBox="0 0 37 13" fill="none" xmlns="http://www.w3.org/2000/svg">
<path d="M18.6815 0.459534L16.2561 11.9666H13.3232L15.749 0.459534H18.6815ZM31.0213 7.88967L32.5654 3.56838L33.4539 7.88967H31.0213ZM34.2936 11.9666H37.0065L34.6392 0.459534H32.1351C31.5724 0.459534 31.0977 0.791688 30.8863 1.30376L26.4861 11.9666H29.5661L30.1776 10.2483H33.9405L34.2936 11.9666ZM26.639 8.20944C26.6516 5.17234 22.5008 5.00517 22.5295 3.64851C22.5381 3.23514 22.926 2.79663 23.7732 2.6841C24.1942 2.62837 25.3515 2.58576 26.6656 3.19945L27.1801 0.759274C26.4743 0.499232 25.566 0.249023 24.4364 0.249023C21.5376 0.249023 19.4972 1.81328 19.48 4.05314C19.4617 5.70954 20.9365 6.63389 22.0479 7.18457C23.1905 7.74873 23.5744 8.11002 23.5694 8.61444C23.5619 9.38692 22.6579 9.72709 21.8146 9.74056C20.3398 9.76423 19.4839 9.33666 18.8018 9.01397L18.2703 11.5354C18.9553 11.8548 20.2203 12.1323 21.5326 12.1465C24.6133 12.1465 26.629 10.6015 26.639 8.20944ZM14.4906 0.459534L9.73868 11.9666H6.63787L4.29962 2.78316C4.15752 2.21755 4.03407 2.01068 3.60238 1.77213C2.89796 1.38425 1.7335 1.01968 0.708984 0.793874L0.77896 0.459534H5.76946C6.40534 0.459534 6.9777 0.889295 7.12196 1.63264L8.35712 8.29175L11.4091 0.459534H14.4906Z" fill="#1434CB"/>
</svg>
